# xmcd
#
# Track frame offsets: 
#        150
#        16195
#        30465
#        47097
#        59207
#        76105
#        92872
#        113340
#        139697
#        151042
#        169325
#        194150
#        206017
#        226035
#        239717
#
# Disc length: 3377 seconds
#
# Revision: 0
# Processed by: cddbd v1.5.2PL0 Copyright (c) Steve Scherf et al.
# Submitted via: ExactAudioCopy v0.90b4
#
DISCID=c20d2f0f
DTITLE=Big Blues and Boogie - A lot of living
DYEAR=1997
DGENRE=Blues
TTITLE0=It's love baby, 24 hours a day
TTITLE1=Ordinary Man
TTITLE2=I fall into pieces
TTITLE3=Yesterday's dreams
TTITLE4=The Wolf
TTITLE5=Going back to Louisiana
TTITLE6=Any fool will do
TTITLE7=Love is a hurting thing
TTITLE8=Leaving you behind
TTITLE9=Lovey dovey
TTITLE10=Happy man
TTITLE11=Give me all your lovin'
TTITLE12=I love it all
TTITLE13=A lot of living
TTITLE14=I dream of your face again
EXTD=
EXTT0=
EXTT1=
EXTT2=
EXTT3=
EXTT4=
EXTT5=
EXTT6=
EXTT7=
EXTT8=
EXTT9=
EXTT10=
EXTT11=
EXTT12=
EXTT13=
EXTT14=
PLAYORDER=
